<svg width="25" height="24" viewBox="0 0 25 24" fill="none" xmlns="http://www.w3.org/2000/svg">
<path d="M5.07812 22C4.39062 22 3.80229 21.7764 3.31312 21.3291C2.82312 20.8811 2.57812 20.3429 2.57812 19.7143V9.42857C2.57812 9.06667 2.66687 8.72381 2.84437 8.4C3.02104 8.07619 3.26563 7.80952 3.57813 7.6L11.0781 2.45714C11.3073 2.30476 11.5469 2.19048 11.7969 2.11429C12.0469 2.0381 12.3073 2 12.5781 2C12.849 2 13.1094 2.0381 13.3594 2.11429C13.6094 2.19048 13.849 2.30476 14.0781 2.45714L21.5781 7.6C21.8906 7.80952 22.1356 8.07619 22.3131 8.4C22.4898 8.72381 22.5781 9.06667 22.5781 9.42857V19.7143C22.5781 20.3429 22.3335 20.8811 21.8444 21.3291C21.3544 21.7764 20.7656 22 20.0781 22H15.0781V14H10.0781V22H5.07812Z" fill="black"/>
</svg>
